<svg width="321" height="63" viewBox="0 0 321 63" fill="none" xmlns="http://www.w3.org/2000/svg">
<path d="M28.977 52.0844C28.977 55.5033 27.6892 58.1895 25.1138 60.1431C22.5869 62.0479 18.8938 63.0003 14.0344 63.0003C10.0983 63.0003 6.86684 62.4142 4.33997 61.242C1.86169 60.0698 0.622559 58.5069 0.622559 56.5533C0.622559 55.6254 0.816927 54.8195 1.20568 54.1357C1.64302 53.452 2.20186 52.8903 2.88217 52.4507C4.2428 53.3299 5.7978 54.1113 7.54717 54.7951C9.34514 55.4788 11.4104 55.8207 13.7428 55.8207C17.7761 55.8207 19.7928 54.5753 19.7928 52.0844C19.7928 51.0588 19.4283 50.2285 18.6994 49.5936C18.0191 48.9587 16.9257 48.4703 15.4193 48.1284L11.3375 47.176C7.74153 46.3945 5.06887 45.1735 3.3195 43.513C1.61872 41.8035 0.768352 39.5569 0.768352 36.773C0.768352 33.5984 2.03177 31.0342 4.55865 29.0806C7.08552 27.0782 10.6329 26.077 15.2007 26.077C17.5332 26.077 19.5984 26.3212 21.3964 26.8096C23.2429 27.2491 24.7007 27.9085 25.7698 28.7876C26.8388 29.6667 27.3734 30.7168 27.3734 31.9378C27.3734 32.8169 27.179 33.5984 26.7903 34.2821C26.4501 34.9171 25.9885 35.4299 25.4053 35.8206C24.8222 35.4787 24.0204 35.1124 23 34.7217C21.9795 34.331 20.8375 33.9891 19.5741 33.696C18.3107 33.403 17.0715 33.2565 15.8567 33.2565C13.9615 33.2565 12.4794 33.5495 11.4103 34.1356C10.3413 34.7217 9.80676 35.6008 9.80676 36.773C9.80676 37.5544 10.0983 38.2382 10.6814 38.8243C11.3132 39.3615 12.3822 39.8011 13.8886 40.143L17.4603 41.0221C21.4935 41.9501 24.4092 43.3176 26.2071 45.1247C28.0537 46.8829 28.977 49.2029 28.977 52.0844Z" fill="#3872D2"/>
<path d="M49.7308 47.3958L43.3165 43.0734L59.7897 26.5898C61.6849 26.5898 63.167 27.0049 64.236 27.8352C65.3537 28.6655 65.9125 29.7156 65.9125 30.9854C65.9125 32.1087 65.548 33.0855 64.8191 33.9158C64.1388 34.7461 63.0454 35.7962 61.539 37.066L49.7308 47.3958ZM43.5351 44.4653L50.6784 41.0954L67.589 57.0662C67.4432 58.7756 66.933 60.1187 66.0583 61.0955C65.2322 62.0234 64.0416 62.4874 62.4866 62.4874C61.369 62.4874 60.3485 62.1944 59.4252 61.6083C58.5019 61.0222 57.5058 60.0942 56.4367 58.8244L43.5351 44.4653ZM36.3919 42.414L45.649 42.8536V61.8281C45.2602 61.9258 44.6771 62.0479 43.8996 62.1944C43.1707 62.3409 42.3446 62.4142 41.4213 62.4142C39.7205 62.4142 38.4571 62.0967 37.631 61.4618C36.8049 60.8269 36.3919 59.7035 36.3919 58.0918V42.414ZM45.649 47.6155L36.3919 47.176V14.282C36.7806 14.1355 37.3637 14.0134 38.1412 13.9157C38.9187 13.7692 39.7448 13.6959 40.6195 13.6959C42.3689 13.6959 43.6323 14.0134 44.4098 14.6483C45.2359 15.2344 45.649 16.3577 45.649 18.0183V47.6155Z" fill="#3872D2"/>
<path d="M74.2384 26.022C74.2384 24.5568 74.7243 23.3358 75.6962 22.359C76.7166 21.3822 78.0044 20.8938 79.5594 20.8938C81.1144 20.8938 82.3779 21.3822 83.3498 22.359C84.3702 23.3358 84.8804 24.5568 84.8804 26.022C84.8804 27.4872 84.3702 28.7326 83.3498 29.7583C82.3779 30.7351 81.1144 31.2235 79.5594 31.2235C78.0044 31.2235 76.7166 30.7351 75.6962 29.7583C74.7243 28.7326 74.2384 27.4872 74.2384 26.022Z" fill="#3872D2"/>
<path d="M155.669 39.4104C154.988 42.0477 154.211 44.734 153.336 47.469C152.51 50.2041 151.708 52.7682 150.931 55.1614C150.202 57.5546 149.546 59.5326 148.963 61.0955C148.477 61.4862 147.796 61.8037 146.922 62.0479C146.096 62.3409 145.051 62.4874 143.787 62.4874C142.427 62.4874 141.188 62.2921 140.07 61.9013C139.001 61.4618 138.296 60.8269 137.956 59.9966C137.47 59.0198 136.936 57.6278 136.353 55.8207C135.818 54.0136 135.235 51.9379 134.603 49.5936C134.02 47.2004 133.413 44.734 132.781 42.1943C132.198 39.6546 131.663 37.2126 131.177 34.8682C130.691 32.475 130.278 30.3261 129.938 28.4213C130.424 27.9329 131.08 27.4933 131.906 27.1026C132.781 26.663 133.753 26.4433 134.822 26.4433C136.134 26.4433 137.179 26.7607 137.956 27.3956C138.734 28.0306 139.244 29.1051 139.487 30.6191C139.924 33.5495 140.362 36.2602 140.799 38.751C141.285 41.2419 141.722 43.4885 142.111 45.491C142.5 47.4934 142.84 49.2029 143.131 50.6192C143.472 52.0356 143.739 53.1101 143.933 53.8427H144.225C144.516 52.7194 145.002 50.9367 145.683 48.4947C146.363 46.0527 147.165 43.2688 148.088 40.143C149.011 36.9684 149.935 33.7937 150.858 30.6191C151.538 30.2284 152.243 29.9353 152.972 29.74C153.749 29.4958 154.648 29.3737 155.669 29.3737C156.981 29.3737 158.074 29.5935 158.949 30.033C159.872 30.4726 160.479 31.1319 160.771 32.0111C161.743 35.088 162.642 38.0917 163.468 41.0221C164.294 43.9525 165.023 46.5411 165.655 48.7877C166.335 51.0344 166.797 52.7194 167.04 53.8427H167.404C168.23 49.7889 169.08 45.5154 169.955 41.0221C170.878 36.5288 171.656 32.0355 172.288 27.5422C173.502 26.8096 174.887 26.4433 176.442 26.4433C177.706 26.4433 178.726 26.7363 179.504 27.3224C180.33 27.8596 180.743 28.812 180.743 30.1795C180.743 30.8145 180.597 31.9134 180.306 33.4763C180.063 34.9903 179.698 36.7486 179.212 38.751C178.775 40.7535 178.265 42.878 177.682 45.1247C177.098 47.3225 176.515 49.4715 175.932 51.5716C175.349 53.6229 174.79 55.5033 174.256 57.2127C173.721 58.8732 173.26 60.1675 172.871 61.0955C172.433 61.4862 171.705 61.8037 170.684 62.0479C169.664 62.3409 168.57 62.4874 167.404 62.4874C164.343 62.4874 162.52 61.7304 161.937 60.2164C161.451 58.7511 160.82 56.8952 160.042 54.6486C159.313 52.4019 158.56 49.9599 157.782 47.3225C157.005 44.6363 156.3 41.9989 155.669 39.4104Z" fill="#3872D2"/>
<path d="M200.996 63.0003C196.186 63.0003 192.371 62.0479 189.553 60.1431C186.734 58.2383 185.325 55.43 185.325 51.7181C185.325 48.4458 186.345 45.955 188.386 44.2456C190.476 42.4873 193.489 41.4128 197.425 41.0221L207.411 39.9965V38.6778C207.411 36.773 206.73 35.4055 205.37 34.5752C204.009 33.696 202.138 33.2565 199.757 33.2565C197.862 33.2565 196.015 33.5007 194.217 33.9891C192.419 34.4775 190.816 35.0392 189.407 35.6741C188.872 35.2834 188.41 34.7461 188.022 34.0623C187.682 33.3786 187.512 32.6704 187.512 31.9378C187.512 30.1307 188.483 28.7876 190.427 27.9085C191.788 27.3224 193.367 26.8828 195.165 26.5898C197.012 26.2967 198.858 26.1502 200.705 26.1502C205.467 26.1502 209.257 27.1759 212.076 29.2272C214.943 31.2296 216.376 34.4042 216.376 38.751V55.6742C216.376 56.8464 216.085 57.7743 215.502 58.4581C214.967 59.1419 214.238 59.7524 213.315 60.2896C211.954 61.0711 210.229 61.706 208.14 62.1944C206.05 62.7316 203.669 63.0003 200.996 63.0003ZM200.996 55.9672C202.406 55.9672 203.693 55.8207 204.859 55.5277C206.026 55.2346 206.876 54.9172 207.411 54.5753V46.4434L200.34 47.1027C198.397 47.2492 196.914 47.6888 195.894 48.4214C194.874 49.1052 194.363 50.1308 194.363 51.4984C194.363 52.8659 194.898 53.9648 195.967 54.7951C197.036 55.5765 198.712 55.9672 200.996 55.9672Z" fill="#3872D2"/>
<path d="M225.594 42.5606H234.705V51.1321C234.705 52.6949 235.167 53.8183 236.09 54.502C237.062 55.1858 238.398 55.5277 240.099 55.5277C240.877 55.5277 241.703 55.43 242.577 55.2346C243.501 54.9904 244.278 54.7462 244.91 54.502C245.299 54.8928 245.615 55.3812 245.858 55.9672C246.149 56.5045 246.295 57.1394 246.295 57.872C246.295 59.3372 245.639 60.5582 244.327 61.535C243.015 62.463 240.901 62.927 237.985 62.927C234.146 62.927 231.109 62.0723 228.874 60.3629C226.687 58.6046 225.594 55.723 225.594 51.7181V42.5606ZM231.134 35.1613V27.9085H245.42C245.663 28.2503 245.882 28.7388 246.076 29.3737C246.271 30.0086 246.368 30.7168 246.368 31.4982C246.368 32.7192 246.076 33.6472 245.493 34.2821C244.91 34.8682 244.133 35.1613 243.161 35.1613H231.134ZM234.705 44.5386H225.594V18.0916C225.983 17.9939 226.542 17.8718 227.27 17.7253C228.048 17.5787 228.874 17.5055 229.749 17.5055C231.45 17.5055 232.689 17.8229 233.466 18.4579C234.292 19.0928 234.705 20.2161 234.705 21.8278V44.5386Z" fill="#3872D2"/>
<path d="M270.712 33.5495C267.845 33.5495 265.415 34.5019 263.423 36.4067C261.479 38.3115 260.507 41.0465 260.507 44.6119C260.507 48.1772 261.454 50.8878 263.35 52.7438C265.245 54.5997 267.699 55.5277 270.712 55.5277C272.412 55.5277 273.894 55.3079 275.158 54.8683C276.421 54.3799 277.515 53.8671 278.438 53.3299C279.167 53.8183 279.726 54.3799 280.114 55.0149C280.503 55.6009 280.698 56.3335 280.698 57.2127C280.698 58.8732 279.701 60.2408 277.709 61.3153C275.765 62.3897 273.165 62.927 269.91 62.927C266.217 62.927 262.936 62.2432 260.069 60.8757C257.251 59.5082 255.064 57.4813 253.509 54.7951C251.954 52.06 251.177 48.6656 251.177 44.6119C251.177 40.5093 252.003 37.0905 253.655 34.3554C255.356 31.6203 257.616 29.569 260.434 28.2015C263.252 26.834 266.314 26.1502 269.618 26.1502C272.874 26.1502 275.474 26.7363 277.417 27.9085C279.361 29.0318 280.333 30.4237 280.333 32.0843C280.333 32.8658 280.139 33.5739 279.75 34.2089C279.361 34.795 278.875 35.3078 278.292 35.7473C277.369 35.2101 276.276 34.7217 275.012 34.2821C273.797 33.7937 272.364 33.5495 270.712 33.5495Z" fill="#3872D2"/>
<path d="M320.377 47.1027H311.12V40.436C311.12 37.994 310.464 36.2357 309.152 35.1613C307.889 34.0379 306.261 33.4763 304.269 33.4763C302.568 33.4763 301.037 33.7937 299.676 34.4287C298.316 35.0636 297.15 35.7962 296.178 36.6265L295.667 29.1539C296.834 28.4213 298.267 27.7375 299.968 27.1026C301.717 26.4677 303.685 26.1502 305.872 26.1502C310.245 26.1502 313.744 27.298 316.368 29.5935C319.041 31.889 320.377 35.3566 320.377 39.9965V47.1027ZM288.305 42.5606H297.563V61.8281C297.174 61.9258 296.591 62.0479 295.813 62.1944C295.084 62.3409 294.258 62.4142 293.335 62.4142C291.634 62.4142 290.371 62.0967 289.545 61.4618C288.719 60.8269 288.305 59.7035 288.305 58.0918V42.5606ZM311.12 42.5606L320.377 42.6338V61.8281C319.989 61.9258 319.405 62.0479 318.628 62.1944C317.899 62.3409 317.097 62.4142 316.223 62.4142C314.473 62.4142 313.185 62.0967 312.359 61.4618C311.533 60.8269 311.12 59.7035 311.12 58.0918V42.5606ZM297.563 47.3225H288.305V14.282C288.694 14.1355 289.277 14.0134 290.055 13.9157C290.832 13.7692 291.658 13.6959 292.533 13.6959C294.282 13.6959 295.546 14.0134 296.323 14.6483C297.15 15.2344 297.563 16.3577 297.563 18.0183V47.3225Z" fill="#3872D2"/>
<path d="M94.143 42.1629L103.264 42.6041V61.4988C102.878 61.5968 102.299 61.7193 101.527 61.8664C100.803 62.0134 100.006 62.0869 99.1378 62.0869C97.4005 62.0869 96.1216 61.7684 95.3012 61.1312C94.5291 60.494 94.143 59.3667 94.143 57.7492V42.1629ZM103.264 47.3094L94.143 46.9418V11.1449C94.5291 10.9979 95.084 10.8753 95.8079 10.7773C96.5801 10.6303 97.4005 10.5568 98.2691 10.5568C100.006 10.5568 101.261 10.8753 102.033 11.5125C102.854 12.1007 103.264 13.228 103.264 14.8945V47.3094Z" fill="#97BBF6"/>
<path d="M113.442 42.1629L122.563 42.6041V61.4988C122.177 61.5968 121.598 61.7193 120.826 61.8664C120.102 62.0134 119.305 62.0869 118.437 62.0869C116.699 62.0869 115.421 61.7684 114.6 61.1312C113.828 60.494 113.442 59.3667 113.442 57.7492V42.1629ZM122.563 47.3094L113.442 46.9418V0.588163C113.828 0.441122 114.383 0.318588 115.107 0.220562C115.879 0.0735205 116.699 0 117.568 0C119.305 0 120.56 0.318588 121.332 0.955764C122.153 1.54393 122.563 2.67124 122.563 4.3377V47.3094Z" fill="#97BBF6"/>
<path d="M75.5933 42.1629L84.7142 42.6041V61.4988C84.3282 61.5968 83.7491 61.7193 82.9769 61.8664C82.253 62.0134 81.4567 62.0869 80.5881 62.0869C78.8507 62.0869 77.5719 61.7684 76.7515 61.1312C75.9793 60.494 75.5933 59.3667 75.5933 57.7493V42.1629ZM84.7142 47.3094L75.5933 46.9418V34.8976C75.9793 34.7506 76.5343 34.6281 77.2582 34.53C78.0304 34.383 78.8508 34.3095 79.7194 34.3095C81.4568 34.3095 82.7115 34.6281 83.4836 35.2652C84.304 35.8534 84.7142 36.9807 84.7142 38.6472V47.3094Z" fill="#97BBF6"/>
</svg>
