<?xml version="1.0" standalone="no"?>
<!DOCTYPE svg PUBLIC "-//W3C//DTD SVG 20010904//EN"
 "http://www.w3.org/TR/2001/REC-SVG-20010904/DTD/svg10.dtd">
<svg version="1.0" xmlns="http://www.w3.org/2000/svg"
 width="144.000000pt" height="144.000000pt" viewBox="0 0 144.000000 144.000000"
 preserveAspectRatio="xMidYMid meet">
<metadata>
Created by potrace 1.14, written by Peter Selinger 2001-2017
</metadata>
<g transform="translate(0.000000,144.000000) scale(0.100000,-0.100000)"
fill="#000000" stroke="none">
<path d="M25 1415 l-25 -24 0 -671 0 -671 25 -24 24 -25 671 0 671 0 24 25 25
24 0 671 0 671 -25 24 -24 25 -671 0 -671 0 -24 -25z m1046 -174 l24 -19 3
-474 c3 -513 1 -540 -46 -556 -36 -12 -76 3 -91 34 -8 18 -11 167 -11 503 0
469 0 479 21 505 25 31 66 34 100 7z m-277 -203 c14 -19 16 -76 16 -412 0
-386 0 -390 -22 -413 -27 -29 -71 -30 -98 -3 -19 19 -20 33 -20 417 0 445 -2
433 71 433 28 0 42 -6 53 -22z m-283 -127 c39 -40 40 -89 1 -132 -23 -25 -36
-32 -71 -33 -36 -1 -47 4 -72 32 -40 44 -40 93 0 133 41 41 101 41 142 0z
m-11 -243 c19 -20 20 -34 20 -229 0 -194 -1 -208 -21 -233 -25 -32 -70 -35
-99 -6 -19 19 -20 33 -20 239 0 216 0 220 22 235 32 23 74 20 98 -6z"/>
</g>
</svg>
