<?xml version="1.0" standalone="no"?>
<!DOCTYPE svg PUBLIC "-//W3C//DTD SVG 20010904//EN"
 "http://www.w3.org/TR/2001/REC-SVG-20010904/DTD/svg10.dtd">
<svg version="1.0" xmlns="http://www.w3.org/2000/svg"
 width="654.000000pt" height="784.000000pt" viewBox="0 0 654.000000 784.000000"
 preserveAspectRatio="xMidYMid meet">

<g transform="translate(0.000000,784.000000) scale(0.100000,-0.100000)"
fill="#000000" stroke="none">
<path d="M3156 7820 c-167 -36 -304 -91 -591 -237 -399 -202 -492 -238 -942
-367 -373 -107 -486 -159 -613 -285 -80 -80 -130 -152 -199 -289 -70 -139 -98
-213 -171 -447 -106 -344 -198 -555 -390 -895 -122 -216 -174 -322 -203 -416
-91 -288 -40 -528 221 -1034 189 -366 238 -493 362 -927 77 -270 112 -366 171
-466 109 -183 312 -326 600 -422 99 -33 109 -39 104 -58 -3 -12 -89 -366 -191
-787 -101 -420 -183 -769 -182 -775 2 -7 255 79 623 211 341 122 623 219 627
216 5 -6 279 -608 360 -792 17 -38 21 -42 27 -25 4 11 77 307 161 658 l154
637 86 -6 c59 -4 113 -1 179 10 52 9 97 13 101 9 4 -4 78 -304 165 -665 88
-362 162 -655 166 -650 4 4 89 189 189 412 100 223 185 408 189 412 3 3 287
-94 631 -217 343 -123 625 -223 626 -222 1 1 -83 351 -187 777 -104 426 -189
778 -189 781 0 3 40 18 90 32 49 15 140 53 202 85 96 48 126 70 199 142 151
150 261 370 374 750 88 296 201 555 381 873 200 353 248 483 247 677 -1 202
-60 378 -248 745 -202 394 -250 518 -376 959 -134 475 -220 609 -493 769 -110
64 -245 120 -441 182 -469 149 -580 197 -1005 432 -341 188 -429 221 -615 229
-85 3 -130 0 -199 -16z m1241 -3280 c408 -1020 743 -1860 743 -1867 0 -11 -82
-13 -407 -11 l-408 3 -161 420 -162 420 -749 3 -749 2 -154 -425 -154 -425
-399 0 c-375 0 -399 1 -395 18 3 9 325 838 716 1842 391 1004 715 1837 721
1853 l11 27 401 -2 402 -3 744 -1855z"/>
<path d="M3025 4618 c-132 -363 -241 -664 -243 -669 -2 -5 199 -9 487 -9 290
0 491 4 491 9 0 10 -478 1299 -488 1317 -4 7 -115 -285 -247 -648z"/>
</g>
</svg>
