<?xml version="1.0" standalone="no"?>
<!DOCTYPE svg PUBLIC "-//W3C//DTD SVG 20010904//EN"
 "http://www.w3.org/TR/2001/REC-SVG-20010904/DTD/svg10.dtd">
<svg version="1.0" xmlns="http://www.w3.org/2000/svg"
 width="512.000000pt" height="512.000000pt" viewBox="0 0 512.000000 512.000000"
 preserveAspectRatio="xMidYMid meet">

<g transform="translate(0.000000,512.000000) scale(0.100000,-0.100000)"
fill="#000000" stroke="none">
<path d="M2384 4991 c-300 -74 -522 -322 -564 -631 -42 -304 126 -616 406
-758 39 -20 140 -54 197 -66 l27 -6 0 -430 0 -430 -482 0 c-266 0 -514 -5
-553 -10 -86 -13 -211 -71 -277 -129 -58 -52 -115 -137 -147 -221 -25 -64 -25
-71 -29 -392 l-3 -328 -27 -6 c-256 -56 -465 -225 -556 -450 -166 -409 58
-868 489 -1001 47 -14 92 -18 205 -18 130 1 153 3 225 28 117 39 199 91 295
187 147 147 209 287 217 490 6 147 -12 235 -71 355 -102 205 -264 337 -485
397 l-82 22 3 305 3 306 26 56 c33 69 89 127 155 160 l49 24 1142 3 c1134 2
1142 2 1197 -18 70 -27 139 -93 174 -168 l27 -57 3 -306 3 -305 -80 -22 c-224
-60 -392 -199 -492 -407 -55 -112 -72 -203 -66 -345 8 -203 70 -343 217 -490
96 -96 178 -148 295 -187 73 -25 93 -27 230 -27 138 0 156 2 229 27 297 104
494 360 513 667 14 222 -68 425 -236 583 -107 100 -218 157 -373 191 l-27 6
-3 328 c-4 304 -6 331 -25 384 -62 166 -178 280 -345 340 -62 22 -71 23 -590
26 l-528 3 0 429 0 430 28 6 c199 43 357 145 468 301 94 131 137 267 137 433
0 221 -100 435 -267 571 -77 63 -219 132 -313 153 -94 21 -248 19 -339 -3z"/>
</g>
</svg>
