<svg width="27" height="61" viewBox="0 0 27 61" fill="#333333" xmlns="http://www.w3.org/2000/svg">
<path d="M26.7652 42.8906H16.803V60.7831H9.99418V42.912H0C0.224468 42.2366 0.41687 41.6256 0.630649 41.0145C2.98222 34.0891 5.33379 27.1636 7.70674 20.2382C8.59393 17.6545 10.4217 16.218 13.126 16.0357C15.6166 15.8642 18.0857 17.3651 18.9729 19.938C20.4373 24.1619 21.8696 28.4072 23.3019 32.6418C24.4136 35.9115 25.5146 39.1706 26.6262 42.4403C26.669 42.5797 26.7117 42.7191 26.7652 42.8906Z" fill="black"/>
<path d="M13.3826 0.447266C16.6748 0.447266 19.3684 3.12739 19.3577 6.39714C19.347 9.69906 16.6748 12.3792 13.404 12.3792C10.1011 12.3792 7.40746 9.66689 7.42884 6.3757C7.43953 3.10595 10.1011 0.447266 13.3826 0.447266Z" fill="black"/>
</svg>
