<svg width="18" height="60" viewBox="0 0 18 60" fill="#333333" xmlns="http://www.w3.org/2000/svg">
<g clip-path="url(#clip0_1346_9876)">
<path d="M17.9897 37.5162H12.6956V60H5.31468V37.5162H0.0205597C0.0205597 37.3544 0 37.2142 0 37.0848C0 31.7685 0 26.463 0 21.1467C0 18.1272 0.832667 15.7441 3.64934 15.1294C4.03998 15.0431 4.44089 15.0108 4.8418 15.0108C7.61736 15 10.3929 15 13.1685 15C16.0468 15 17.301 16.9518 17.8766 19.9065C17.9589 20.3055 17.9897 20.7153 17.9897 21.1143C17.9897 26.4414 17.9897 31.7685 17.9897 37.0956V37.5054V37.5162Z" fill="black"/>
</g>
<path d="M8.38259 0.447266C11.6748 0.447266 14.3684 3.12739 14.3577 6.39714C14.347 9.69906 11.6748 12.3792 8.40397 12.3792C5.10108 12.3792 2.40746 9.66689 2.42884 6.3757C2.43953 3.10595 5.10108 0.447266 8.38259 0.447266Z" fill="black"/>
<defs>
<clipPath id="clip0_1346_9876">
<rect width="18" height="45" fill="white" transform="translate(0 15)"/>
</clipPath>
</defs>
</svg>
