<svg width="25" height="60" viewBox="0 0 25 60" fill="none" xmlns="http://www.w3.org/2000/svg">
<path d="M13.6918 41.0848H24.3692L16.7997 19.4018C16 17.5424 13.7995 15.5312 8.99952 15.5312C4.19952 15.5312 6.57113 17.5424 8.35694 18.548C7.5782 26.0899 8.35579 34.6374 8.08651 40.6709L8.08624 41.6765H8.07763L8.07763 59.7771H13.6918V41.0848Z" fill="black"/>
<path d="M4.81468 41.1791V40.6791H4.31468H0.5V21.7014C0.5 20.2176 0.705455 18.9546 1.2101 18.0035C1.70106 17.0782 2.49055 16.4167 3.75651 16.1389L3.75774 16.1386C4.10405 16.0617 4.46715 16.0312 4.8418 16.0312H8.48857L7.51117 59.2771H4.81468V41.1791Z" fill="black" stroke="black"/>
<path d="M8.38259 0.447266C11.6748 0.447266 14.3684 3.12739 14.3577 6.39714C14.347 9.69906 11.6748 12.3792 8.40397 12.3792C5.10108 12.3792 2.40746 9.66689 2.42884 6.3757C2.43953 3.10595 5.10108 0.447266 8.38259 0.447266Z" fill="black"/>
<path d="M8 15H10V60H8V15Z" fill="#F7F9FD"/>
</svg>
