<?xml version="1.0" encoding="UTF-8"?>
<svg width="700pt" height="700pt" version="1.1" viewBox="0 0 700 700" xmlns="http://www.w3.org/2000/svg">
 <g>
  <path d="m263.43 398.33c1.9258 1.4531 4.6641 1.0703 6.1172-0.85547 1.4531-1.9258 1.0703-4.6641-0.85547-6.1172-16.738-12.609-30.465-29.012-39.902-47.926-9.0859-18.207-14.195-38.75-14.195-60.492 0-2.418-1.9609-4.375-4.375-4.375-2.418 0-4.375 1.9609-4.375 4.375 0 23.133 5.4453 44.996 15.121 64.387 10.043 20.125 24.652 37.578 42.469 51z"/>
  <path d="m431.29 391.37c-1.9258 1.4531-2.3086 4.1914-0.85547 6.1172s4.1914 2.3086 6.1172 0.85547c17.82-13.422 32.434-30.875 42.48-51.004 9.6797-19.391 15.125-41.262 15.125-64.398 0-2.418-1.9609-4.375-4.375-4.375-2.418 0-4.375 1.9609-4.375 4.375 0 21.746-5.1133 42.293-14.203 60.5-9.4414 18.918-23.172 35.316-39.918 47.93z"/>
  <path d="m409.27 170.94c2.1992 0.98047 4.7773-0.003906 5.7578-2.2031s-0.003906-4.7773-2.2031-5.7578c-19.84-8.8984-41.551-13.266-63.422-12.641-21.18 0.60547-42.484 5.875-62.355 16.223-2.1406 1.1133-2.9766 3.7539-1.8633 5.8945s3.7539 2.9766 5.8945 1.8633c18.707-9.7422 38.711-14.699 58.562-15.266 20.555-0.58594 40.969 3.5195 59.629 11.891z"/>
  <path d="m254.54 183.75c1.3086-0.0625 2.4727-0.09375 3.4961-0.09375 17.254 0 32.891 5.8867 44.402 15.137 11.719 9.418 19.203 22.355 19.898 36.238 0.042968 0.85938 0.066406 1.5586 0.066406 2.1016v19.812c0 2.418-1.9609 4.375-4.375 4.375h-173.66c-2.418 0-4.375-1.9609-4.375-4.375v-19.812c0-0.53516 0.023437-1.2344 0.0625-2.0898 0.69141-13.891 8.1758-26.832 19.902-36.25 11.516-9.25 27.16-15.137 44.422-15.137 1.0977 0 2.3594 0.035156 3.7969 0.10547l-0.20703 4.3594 0.21875-4.3711c0.96094 0.046875 1.832 0.40234 2.5273 0.96484 2.9727 2.1992 6.2305 3.9258 9.6914 5.0898 3.3789 1.1367 7.0039 1.75 10.785 1.75s7.4023-0.61328 10.785-1.75c3.5117-1.1797 6.8164-2.9453 9.8242-5.1875v-0.003906c0.82031-0.61328 1.7812-0.89453 2.7305-0.86719zm3.4961 8.6562c-0.75391 0-1.4609 0.007813-2.1094 0.023438-3.4102 2.3867-7.1602 4.3008-11.168 5.6484-4.3047 1.4492-8.8594 2.2305-13.555 2.2305s-9.2461-0.78125-13.555-2.2305c-4.0078-1.3477-7.7578-3.2617-11.168-5.6484-0.64453-0.015625-1.3438-0.023438-2.0938-0.023438-15.207 0-28.918 5.1289-38.953 13.188-9.8281 7.8945-16.094 18.562-16.656 29.859-0.019532 0.39844-0.03125 0.95703-0.03125 1.6797v15.434h164.91v-15.434c0-0.72266-0.011719-1.2891-0.03125-1.6914-0.56641-11.289-6.8281-21.957-16.652-29.848-10.031-8.0586-23.734-13.188-38.934-13.188z"/>
  <path d="m231.2 80.855c12.898 0 24.594 4.1719 32.898 12.352 7.6523 7.5352 12.336 18.34 12.336 32.258 0 14.492-5.125 28.762-13.371 39.27-8.1484 10.387-19.375 17.191-31.863 17.191-12.492 0-23.715-6.8047-31.863-17.191-8.2461-10.512-13.371-24.781-13.371-39.27 0-13.918 4.6836-24.723 12.336-32.258 8.3047-8.1797 20-12.352 32.898-12.352zm26.781 18.574c-6.6055-6.5039-16.133-9.8242-26.781-9.8242s-20.176 3.3203-26.781 9.8242c-6.0195 5.9258-9.7031 14.633-9.7031 26.039 0 12.531 4.4062 24.836 11.488 33.871 6.5625 8.3633 15.387 13.84 24.996 13.84s18.434-5.4766 24.996-13.84c7.0859-9.0312 11.488-21.336 11.488-33.871 0-11.406-3.6836-20.109-9.7031-26.039z"/>
  <path d="m492.14 183.75c1.3086-0.0625 2.4727-0.09375 3.4961-0.09375 17.254 0 32.891 5.8867 44.402 15.137 11.719 9.418 19.203 22.355 19.898 36.238 0.042968 0.85938 0.066406 1.5586 0.066406 2.1016v19.812c0 2.418-1.9609 4.375-4.375 4.375h-173.66c-2.418 0-4.375-1.9609-4.375-4.375v-19.812c0-0.53516 0.023438-1.2344 0.0625-2.0898 0.69141-13.891 8.1758-26.832 19.902-36.25 11.516-9.25 27.16-15.137 44.422-15.137 1.0977 0 2.3594 0.035156 3.7969 0.10547l-0.20703 4.3594 0.21875-4.3711c0.96094 0.046875 1.832 0.40234 2.5273 0.96484 2.9688 2.1992 6.2305 3.9258 9.6914 5.0898 3.3789 1.1367 7.0039 1.75 10.785 1.75s7.4062-0.61328 10.785-1.75c3.5117-1.1797 6.8164-2.9453 9.8242-5.1875v-0.003906c0.82031-0.61328 1.7812-0.89453 2.7305-0.86719zm3.4961 8.6562c-0.75391 0-1.4609 0.007813-2.1094 0.023438-3.4102 2.3867-7.1602 4.3008-11.168 5.6484-4.3047 1.4492-8.8594 2.2305-13.555 2.2305-4.6953 0-9.2461-0.78125-13.555-2.2305-4.0078-1.3477-7.7578-3.2617-11.168-5.6484-0.64453-0.015625-1.3438-0.023438-2.0938-0.023438-15.207 0-28.918 5.1289-38.953 13.188-9.8281 7.8945-16.094 18.562-16.656 29.859-0.019531 0.39844-0.03125 0.95703-0.03125 1.6797v15.434h164.91v-15.434c0-0.72266-0.011719-1.2891-0.03125-1.6914-0.56641-11.289-6.8281-21.957-16.652-29.848-10.031-8.0586-23.734-13.188-38.934-13.188z"/>
  <path d="m468.8 80.855c12.898 0 24.594 4.1719 32.898 12.352 7.6523 7.5352 12.336 18.34 12.336 32.258 0 14.492-5.125 28.762-13.371 39.27-8.1484 10.387-19.375 17.191-31.863 17.191-12.492 0-23.715-6.8047-31.863-17.191-8.2461-10.512-13.371-24.781-13.371-39.27 0-13.918 4.6836-24.723 12.336-32.258 8.3047-8.1797 20-12.352 32.898-12.352zm26.781 18.574c-6.6055-6.5039-16.133-9.8242-26.781-9.8242s-20.176 3.3203-26.781 9.8242c-6.0195 5.9258-9.7031 14.633-9.7031 26.039 0 12.531 4.4062 24.836 11.488 33.871 6.5625 8.3633 15.387 13.84 24.996 13.84s18.434-5.4766 24.996-13.84c7.0859-9.0312 11.488-21.336 11.488-33.871 0-11.406-3.6836-20.109-9.7031-26.039z"/>
  <path d="m373.34 401.57c1.3086-0.0625 2.4727-0.09375 3.4961-0.09375 17.254 0 32.891 5.8867 44.402 15.137 11.719 9.418 19.203 22.355 19.898 36.238 0.042969 0.85547 0.066406 1.5586 0.066406 2.1016v19.812c0 2.418-1.9609 4.375-4.375 4.375h-173.66c-2.418 0-4.375-1.9609-4.375-4.375v-19.812c0-0.53516 0.023437-1.2344 0.0625-2.0898 0.69141-13.891 8.1758-26.832 19.902-36.25 11.516-9.25 27.16-15.137 44.422-15.137 1.0977 0 2.3594 0.035157 3.7969 0.10547l-0.20703 4.3594 0.21875-4.3711c0.96094 0.046876 1.832 0.40234 2.5273 0.96484 2.9727 2.1992 6.2305 3.9297 9.6914 5.0898 3.3828 1.1367 7.0039 1.75 10.785 1.75s7.4023-0.61328 10.785-1.75c3.5117-1.1797 6.8164-2.9453 9.8242-5.1875v-0.003906c0.82031-0.61328 1.7812-0.89453 2.7305-0.86719zm3.4961 8.6562c-0.75391 0-1.4609 0.007813-2.1094 0.023438-3.4102 2.3867-7.1641 4.3008-11.168 5.6484-4.3047 1.4492-8.8594 2.2305-13.555 2.2305-4.6953 0-9.2461-0.78125-13.555-2.2305-4.0078-1.3477-7.7578-3.2617-11.168-5.6484-0.64453-0.015625-1.3438-0.023438-2.0938-0.023438-15.207 0-28.918 5.1289-38.953 13.188-9.8281 7.8945-16.094 18.562-16.656 29.859-0.019531 0.39844-0.03125 0.95703-0.03125 1.6797v15.434h164.91v-15.434c0-0.72266-0.011719-1.2891-0.03125-1.6914-0.56641-11.289-6.8281-21.957-16.652-29.848-10.031-8.0586-23.734-13.188-38.934-13.188z"/>
  <path d="m350 298.67c12.898 0 24.594 4.1719 32.898 12.352 7.6523 7.5352 12.336 18.34 12.336 32.258 0 14.492-5.125 28.762-13.371 39.27-8.1484 10.387-19.375 17.191-31.863 17.191-12.492 0-23.715-6.8047-31.863-17.191-8.2461-10.512-13.371-24.781-13.371-39.27 0-13.918 4.6836-24.723 12.336-32.258 8.3047-8.1797 20-12.352 32.898-12.352zm26.781 18.574c-6.6055-6.5039-16.133-9.8242-26.781-9.8242s-20.176 3.3203-26.781 9.8242c-6.0195 5.9258-9.7031 14.633-9.7031 26.039 0 12.531 4.4062 24.836 11.492 33.871 6.5625 8.3633 15.387 13.84 24.996 13.84s18.434-5.4766 24.996-13.84c7.0859-9.0312 11.488-21.336 11.488-33.871 0-11.406-3.6875-20.109-9.7031-26.039z"/>
 </g>
</svg>
