<svg width="14" height="14" viewBox="0 0 14 14" fill="none" xmlns="http://www.w3.org/2000/svg">
<path d="M7.24107 10.4284L9.99729 12.1784C10.3528 12.4027 10.7903 12.0691 10.6864 11.6589L9.88792 8.51984C9.86634 8.43282 9.86976 8.34149 9.89785 8.25634C9.92589 8.17121 9.97742 8.09572 10.0465 8.0386L12.5184 5.97687C12.841 5.70891 12.677 5.16751 12.2559 5.14016L9.02931 4.93233C8.9413 4.92721 8.85665 4.89655 8.78578 4.84411C8.71486 4.79166 8.66076 4.7197 8.6301 4.63703L7.42698 1.60735C7.39515 1.51979 7.3371 1.44416 7.26083 1.39071C7.18452 1.33727 7.09357 1.30859 7.00043 1.30859C6.90723 1.30859 6.81634 1.33727 6.74002 1.39071C6.6637 1.44416 6.6057 1.51979 6.57387 1.60735L5.37075 4.63703C5.3401 4.7197 5.286 4.79166 5.21507 4.84411C5.1442 4.89655 5.05955 4.92721 4.97154 4.93233L1.74498 5.14016C1.32388 5.16751 1.15981 5.70891 1.48244 5.97687L3.95432 8.0386C4.02343 8.09572 4.07497 8.17121 4.103 8.25634C4.1311 8.34149 4.13451 8.43282 4.11294 8.51984L3.37466 11.4292C3.24889 11.9214 3.77386 12.3206 4.19497 12.0527L6.75978 10.4284C6.83172 10.3827 6.91519 10.3584 7.00043 10.3584C7.08566 10.3584 7.16914 10.3827 7.24107 10.4284Z" fill="#3872D2" fill-opacity="0.2"/>
<path fill-rule="evenodd" clip-rule="evenodd" d="M7.00576 10.7976C7.00576 10.7976 7.00307 10.7959 6.99989 10.7959C6.99989 10.7959 6.99671 10.7959 6.99402 10.7976L4.42849 12.4223C4.42849 12.4223 4.15558 12.5959 3.84044 12.5739C3.84044 12.5739 3.55044 12.5537 3.31443 12.3743C3.31443 12.3743 3.08137 12.1971 2.97995 11.9245C2.97995 11.9245 2.8709 11.6313 2.95023 11.3209L3.68833 8.41223C3.68833 8.41223 3.69043 8.40376 3.68697 8.39328C3.68697 8.39328 3.68351 8.38279 3.67501 8.37576L1.2017 6.31284C1.2017 6.31284 0.977946 6.12702 0.904537 5.84839C0.904537 5.84839 0.83745 5.59375 0.916328 5.33891C0.916328 5.33891 0.996085 5.08124 1.19797 4.9106C1.19797 4.9106 1.42019 4.72278 1.71607 4.70357L4.94286 4.49574C4.94286 4.49574 4.95045 4.49529 4.95438 4.49239C4.95438 4.49239 4.9583 4.48948 4.96 4.4849L4.96359 4.47555L6.16471 1.45092C6.16471 1.45092 6.26128 1.19151 6.48853 1.03235C6.48853 1.03235 6.71878 0.871094 6.99989 0.871094C6.99989 0.871094 7.281 0.871094 7.51125 1.03235C7.51125 1.03235 7.7385 1.19151 7.83507 1.45091L9.03619 4.47555L9.03978 4.4849C9.03978 4.4849 9.04148 4.48948 9.04541 4.49239C9.04541 4.49239 9.04933 4.49529 9.05421 4.49558L12.2835 4.70355C12.2835 4.70355 12.5796 4.72278 12.8018 4.9106C12.8018 4.9106 13.0037 5.08124 13.0835 5.33891C13.0835 5.33891 13.1623 5.59375 13.0952 5.84839C13.0952 5.84839 13.0218 6.12702 12.7974 6.31343L10.3262 8.37456C10.3262 8.37456 10.3163 8.38279 10.3128 8.39328C10.3128 8.39328 10.3094 8.40376 10.312 8.41448L11.1098 11.5511C11.1098 11.5511 11.1811 11.8323 11.0818 12.0979C11.0818 12.0979 10.9893 12.3451 10.7777 12.5053C10.7777 12.5053 10.5631 12.6678 10.2991 12.686C10.2991 12.686 10.0126 12.7057 9.76336 12.5485L7.00635 10.798L7.00601 10.7978L7.00576 10.7976ZM10.2302 11.8084L7.47535 10.0593L7.47502 10.0591C7.47502 10.0591 7.25756 9.92091 6.99989 9.92091C6.99989 9.92091 6.74207 9.92091 6.52451 10.0592L3.96036 11.683C3.96036 11.683 3.90081 11.7209 3.84395 11.6777C3.84395 11.6777 3.77547 11.6256 3.79799 11.5375L4.53645 8.62745C4.53645 8.62745 4.60044 8.36957 4.51801 8.11941C4.51801 8.11941 4.43557 7.86926 4.23259 7.70142L1.76215 5.64089C1.76215 5.64089 1.74359 5.62548 1.7522 5.59764C1.7522 5.59764 1.75839 5.57766 1.77277 5.57673L4.9991 5.36893C4.9991 5.36893 5.26136 5.35368 5.47474 5.19584C5.47474 5.19584 5.6858 5.03972 5.77838 4.79455L6.97994 1.76881L6.98447 1.75689C6.98447 1.75689 6.98624 1.75203 6.99048 1.74906C6.99048 1.74906 6.99472 1.74609 6.99989 1.74609C6.99989 1.74609 7.00506 1.74609 7.0093 1.74906C7.0093 1.74906 7.01354 1.75203 7.01531 1.75689L7.01984 1.76881L8.2214 4.79455C8.2214 4.79455 8.31398 5.03972 8.52504 5.19584C8.52504 5.19584 8.73842 5.35368 9.00338 5.3691L12.2272 5.57675C12.2272 5.57675 12.2414 5.57766 12.2476 5.59764C12.2476 5.59764 12.2562 5.62548 12.2383 5.64031L9.76576 7.70261C9.76576 7.70261 9.56421 7.86926 9.48177 8.11941C9.48177 8.11941 9.39934 8.36956 9.46277 8.6252L10.2618 11.7667C10.2618 11.7667 10.2686 11.7933 10.2494 11.8078C10.2494 11.8078 10.2402 11.8147 10.2302 11.8084Z" fill="#3872D2"/>
</svg>
