<svg width='24' height='24' viewBox='0 0 21 21' xmlns='http://www.w3.org/2000/svg' xmlns:xlink='http://www.w3.org/1999/xlink'><rect width='24' height='24' stroke='none' fill='#607890' opacity='0'/>


<g transform="matrix(0.4 0 0 0.4 12 12)" >
<path style="stroke: none; stroke-width: 1; stroke-dasharray: none; stroke-linecap: butt; stroke-dashoffset: 0; stroke-linejoin: miter; stroke-miterlimit: 4; fill: #607890; fill-rule: nonzero; opacity: 1;" transform=" translate(-25, -25)" d="M 19.251953 2 C 19.136391 2.00075 19.01975 2.021 18.90625 2.0625 L 0.66796875 8.7539062 C 0.06196875 8.9759062 -0.18770313 9.6971875 0.15429688 10.242188 L 5 17.5 L 25 10 L 20.125 2.4785156 C 19.933 2.1725156 19.598641 1.99775 19.251953 2 z M 25 10 L 33.082031 13.03125 L 46.824219 7.8339844 L 31.09375 2.0625 C 30.63975 1.8965 30.131 2.0705156 29.875 2.4785156 L 25 10 z M 5 17.5 L 0.15429688 24.917969 C -0.18770313 25.452969 0.06196875 26.158953 0.66796875 26.376953 L 18.90625 32.9375 C 19.36025 33.1015 19.869 32.93125 20.125 32.53125 L 25 25 L 5 17.5 z M 25 25 L 45 17.5 L 49.919922 9.8085938 C 50.179922 9.3825937 49.766641 8.8611563 49.306641 9.0351562 L 31.017578 15.951172 C 30.589578 16.113172 30.226375 16.4155 29.984375 16.8125 L 25 25 z M 45 19.636719 L 26 26.761719 L 26 48 L 44.34375 41.300781 C 44.73875 41.156781 45 40.781328 45 40.361328 L 45 19.636719 z M 5 30.060547 L 5 40.361328 C 5 40.781328 5.26125 41.156781 5.65625 41.300781 L 24 48 L 24 30.226562 L 21.804688 33.619141 C 21.234687 34.503141 20.276484 35.003906 19.271484 35.003906 C 18.925484 35.003906 18.573469 34.944312 18.230469 34.820312 L 5 30.060547 z" stroke-linecap="round" />
</g>
</svg>